<?xml version="1.0" standalone="no"?>
<!DOCTYPE svg PUBLIC "-//W3C//DTD SVG 20010904//EN"
 "http://www.w3.org/TR/2001/REC-SVG-20010904/DTD/svg10.dtd">
<svg version="1.0" xmlns="http://www.w3.org/2000/svg"
 width="1200.000000pt" height="1200.000000pt" viewBox="0 0 1200.000000 1200.000000"
 preserveAspectRatio="xMidYMid meet">

<g transform="translate(0.000000,1200.000000) scale(0.100000,-0.100000)"
fill="#000000" stroke="none">
<path d="M1050 6450 l0 -2100 1780 0 1780 0 0 35 0 35 -1742 2 -1743 3 0 2025
0 2025 4875 0 4875 0 0 -2025 0 -2025 -1742 -3 -1743 -2 0 -35 0 -35 1780 0
1780 0 0 2100 0 2100 -4950 0 -4950 0 0 -2100z"/>
<path d="M1200 6450 l0 -1950 1800 0 1800 0 0 75 0 75 -1725 0 -1725 0 0 1800
0 1800 4650 0 4650 0 0 -1800 0 -1800 -1725 0 -1725 0 0 -75 0 -75 1800 0
1800 0 0 1950 0 1950 -4800 0 -4800 0 0 -1950z"/>
<path d="M6097 7117 c-17 -11 -18 -45 -15 -462 3 -420 4 -452 22 -481 26 -43
69 -66 125 -67 70 -1 111 19 111 53 0 50 -9 60 -54 60 -23 0 -47 5 -54 12 -9
9 -12 121 -12 445 0 417 -1 433 -19 443 -27 14 -84 13 -104 -3z"/>
<path d="M3563 7056 c-120 -39 -183 -127 -183 -256 0 -112 49 -178 191 -258
52 -28 101 -58 110 -65 50 -39 66 -125 35 -185 -35 -68 -148 -80 -261 -28 -56
25 -60 26 -72 10 -7 -10 -16 -33 -19 -53 -6 -29 -3 -38 20 -57 66 -57 250 -73
341 -30 100 47 147 124 147 241 1 132 -41 186 -217 285 -108 61 -135 92 -135
155 0 44 28 98 59 114 41 23 104 23 171 2 37 -12 68 -17 73 -12 5 5 12 30 14
55 l6 46 -48 21 c-59 26 -175 34 -232 15z"/>
<path d="M4317 7059 c-156 -23 -244 -114 -282 -296 -30 -139 -13 -371 33 -477
25 -56 85 -122 133 -146 106 -54 284 -44 382 23 l27 18 0 219 c0 207 -1 220
-19 230 -21 11 -219 14 -245 4 -19 -7 -22 -94 -4 -112 7 -7 38 -12 70 -12 l58
0 0 -134 c0 -152 4 -146 -88 -146 -161 0 -218 104 -209 379 6 202 30 264 117
309 41 22 53 23 147 18 96 -5 103 -4 113 15 6 11 10 34 8 52 -2 27 -9 34 -38
43 -53 17 -138 22 -203 13z"/>
<path d="M4852 7048 c-17 -17 -17 -909 0 -926 13 -13 85 -16 112 -6 14 5 16
34 16 215 0 115 3 209 8 209 4 0 65 -95 135 -210 93 -151 135 -212 151 -216
43 -10 111 0 114 17 2 9 -58 115 -132 236 -75 121 -136 225 -136 231 0 6 52
98 116 204 64 106 121 203 127 216 14 31 -3 42 -64 42 -35 0 -50 -5 -66 -22
-11 -13 -69 -105 -129 -205 -60 -101 -112 -183 -116 -183 -5 0 -8 90 -8 199 0
172 -2 200 -16 205 -27 10 -99 7 -112 -6z"/>
<path d="M5695 6821 c-85 -22 -151 -88 -181 -179 -26 -79 -27 -284 -1 -359 23
-66 85 -136 139 -158 61 -25 171 -23 231 3 40 18 47 25 47 50 0 15 -6 37 -14
47 -12 17 -18 18 -53 7 -22 -7 -63 -12 -90 -12 -100 0 -138 67 -138 245 0 179
38 245 139 245 28 0 67 -4 86 -10 41 -12 50 -5 57 48 5 40 4 41 -33 57 -46 19
-146 28 -189 16z"/>
<path d="M6653 6821 c-76 -20 -151 -93 -173 -169 -54 -189 -19 -412 77 -491
71 -58 214 -73 311 -31 73 31 87 50 72 94 -13 42 -21 43 -90 16 -28 -11 -73
-20 -101 -20 -91 0 -134 41 -146 141 l-6 49 170 0 c118 0 173 4 181 12 7 7 12
42 12 89 0 137 -52 254 -131 295 -35 17 -133 26 -176 15z m124 -123 c26 -21
43 -66 50 -128 l6 -60 -118 0 -118 0 6 59 c6 70 29 115 71 136 33 16 79 13
103 -7z"/>
<path d="M7285 6817 c-28 -7 -68 -22 -90 -33 -37 -17 -40 -22 -39 -57 2 -58
13 -63 85 -38 74 25 165 28 196 6 22 -15 43 -70 43 -111 0 -19 -7 -22 -68 -27
-100 -10 -168 -33 -213 -74 -49 -44 -57 -58 -69 -123 -11 -60 2 -144 29 -180
66 -90 199 -101 290 -24 l39 34 7 -29 c3 -16 12 -35 20 -41 15 -13 92 -3 102
13 10 17 3 486 -8 537 -13 56 -49 105 -99 130 -50 25 -159 34 -225 17z m195
-443 c0 -86 0 -87 -34 -119 -39 -36 -90 -50 -129 -36 -30 12 -44 34 -48 76 -9
112 42 160 174 164 l37 1 0 -86z"/>
<path d="M8099 6817 c-41 -15 -109 -65 -109 -79 0 -22 -18 5 -24 36 -4 20 -14
37 -24 40 -20 6 -91 -8 -102 -21 -4 -4 -4 -33 0 -63 5 -30 9 -179 9 -331 1
-308 -3 -289 71 -289 70 0 70 1 70 278 0 271 1 277 60 307 40 21 83 19 114 -6
l26 -20 0 -264 c0 -299 -1 -295 75 -295 76 0 75 -2 74 278 0 271 -6 330 -36
370 -43 58 -135 84 -204 59z"/>
<path d="M5166 5419 l-26 -20 0 -248 c0 -239 1 -249 21 -267 20 -18 47 -19
749 -19 698 0 729 1 749 19 18 16 21 32 23 125 3 91 5 106 21 109 16 3 17 -10
17 -167 0 -94 -3 -171 -7 -171 -27 0 -800 -174 -810 -182 -9 -7 -13 -38 -13
-89 l0 -79 -48 0 c-38 0 -53 -5 -70 -23 -22 -23 -22 -29 -22 -339 l0 -317 26
-20 c24 -19 40 -21 154 -21 111 0 131 3 151 19 l24 19 3 316 3 316 -25 25
c-20 20 -35 25 -76 25 l-50 0 0 54 c0 30 3 57 8 60 4 2 185 43 401 90 217 48
401 91 408 97 10 9 13 60 13 225 0 239 2 234 -74 234 l-36 0 0 104 c0 162 86
146 -770 146 -711 0 -718 0 -744 -21z m1444 -269 l0 -220 -700 0 -700 0 0 220
0 220 700 0 700 0 0 -220z m-572 -1077 l-3 -288 -107 -3 -108 -3 0 291 0 290
110 0 110 0 -2 -287z"/>
</g>
</svg>
